<svg width="24" height="25" viewBox="0 0 24 25" fill="none" xmlns="http://www.w3.org/2000/svg">
<g id="mdi-light:magnify">
<path id="Vector" d="M9.5005 4.9707C10.7441 4.97068 11.9615 5.32737 13.0084 5.99847C14.0554 6.66957 14.8878 7.6269 15.407 8.75688C15.9262 9.88686 16.1104 11.1421 15.9376 12.3736C15.7649 13.6051 15.2425 14.7612 14.4325 15.7047L20.0765 21.3487L19.3695 22.0557L13.7245 16.4107C12.9284 17.0915 11.9795 17.5698 10.9587 17.8049C9.93786 18.04 8.87535 18.0249 7.86163 17.7608C6.84792 17.4968 5.91304 16.9917 5.13661 16.2885C4.36018 15.5853 3.76521 14.7048 3.40237 13.7221C3.03953 12.7394 2.91958 11.6836 3.05271 10.6446C3.18585 9.60554 3.56814 8.61407 4.16703 7.75461C4.76591 6.89515 5.56364 6.19316 6.49229 5.70844C7.42093 5.22372 8.45297 4.97062 9.5005 4.9707ZM9.5005 5.9707C8.04181 5.9707 6.64286 6.55017 5.61141 7.58162C4.57996 8.61307 4.0005 10.012 4.0005 11.4707C4.0005 12.9294 4.57996 14.3283 5.61141 15.3598C6.64286 16.3912 8.04181 16.9707 9.5005 16.9707C10.9592 16.9707 12.3581 16.3912 13.3896 15.3598C14.421 14.3283 15.0005 12.9294 15.0005 11.4707C15.0005 10.012 14.421 8.61307 13.3896 7.58162C12.3581 6.55017 10.9592 5.9707 9.5005 5.9707Z" fill="#252525"/>
</g>
</svg>
